PathFileType	4	(X/Y/Z)	/Users/itak/Documents/Research/Walk-IL/dataset/trc/00058_00006.trc
DataRate	CameraRate	NumFrames	NumMarkers	Units	OrigDataRate	OrigDataStartFrame	OrigNumFrames
100.000000	100.000000	4	53	mm	100.000000	102	821
Frame#	Time	RPSI			LPSI			L3			STRN			T10			C7			CLAV			RBAK			LBAK			LSHO			LUPA			LAEL			LAOL			LWTS			LWPS			LFRA			LIFD			LHPS			LHTS			RSHO			RUPA			RAEL			RAOL			RWTS			RWPS			RFRA			RIFD			RHTS			RHPS			RBHD			LFHD			RFHD			LBHD			LHIP			RHIP			RASI			LASI			LKNE			LTHI			LANK			LTIP			LTOE			LMT1			LMT5			LHEE			RKNE			RTHI			RANK			RTIP			RTOE			RMT1			RMT5			RHEE			
		X1	Y1	Z1	X2	Y2	Z2	X3	Y3	Z3	X4	Y4	Z4	X5	Y5	Z5	X6	Y6	Z6	X7	Y7	Z7	X8	Y8	Z8	X9	Y9	Z9	X10	Y10	Z10	X11	Y11	Z11	X12	Y12	Z12	X13	Y13	Z13	X14	Y14	Z14	X15	Y15	Z15	X16	Y16	Z16	X17	Y17	Z17	X18	Y18	Z18	X19	Y19	Z19	X20	Y20	Z20	X21	Y21	Z21	X22	Y22	Z22	X23	Y23	Z23	X24	Y24	Z24	X25	Y25	Z25	X26	Y26	Z26	X27	Y27	Z27	X28	Y28	Z28	X29	Y29	Z29	X30	Y30	Z30	X31	Y31	Z31	X32	Y32	Z32	X33	Y33	Z33	X34	Y34	Z34	X35	Y35	Z35	X36	Y36	Z36	X37	Y37	Z37	X38	Y38	Z38	X39	Y39	Z39	X40	Y40	Z40	X41	Y41	Z41	X42	Y42	Z42	X43	Y43	Z43	X44	Y44	Z44	X45	Y45	Z45	X46	Y46	Z46	X47	Y47	Z47	X48	Y48	Z48	X49	Y49	Z49	X50	Y50	Z50	X51	Y51	Z51	X52	Y52	Z52	X53	Y53	Z53	

103	1.02	-99.35284423828125	1042.646484375	1270.711303710938	-111.6124038696289	1036.495483398438	1095.391479492188	-100.3254623413086	1085.238647460938	1174.748046875	138.4020385742188	1288.183837890625	1180.683715820312	-126.4449081420898	1218.20068359375	1166.726928710938	-74.95144653320312	1486.61865234375	1164.4912109375	-137.6944427490234	1346.718505859375	1237.838012695312	106.1085052490234	1401.728637695312	1176.88037109375	-89.91701507568359	1448.333862304688	1062.136596679688	18.22002029418945	1453.460815429688	995.7564086914062	11.38263130187988	1324.55712890625	919.3982543945312	41.50951766967773	1108.673095703125	909.8284301757812	-30.06859016418457	1094.114501953125	988.2818603515625	132.8680877685547	874.2879638671875	992.3192138671875	82.63332366943359	859.0950317382812	926.6165771484375	66.69765472412109	999.8466186523438	909.157958984375	154.0130767822266	689.2667236328125	1016.271850585938	116.8802947998047	779.3980712890625	938.3423461914062	157.5024566650391	792.1583862304688	995.110595703125	-18.41365623474121	1451.266723632812	1344.077758789062	-30.65563011169434	1381.290649414062	1407.602294921875	-49.9617919921875	1113.109130859375	1430.018798828125	-31.81418418884277	1094.908813476562	1334.211181640625	97.9808349609375	864.831787109375	1390.726196289062	27.46314239501953	847.0122680664062	1438.995483398438	-34.29184341430664	1034.000732421875	1434.760864257812	110.1984558105469	675.4244384765625	1375.609741210938	123.6632385253906	762.8705444335938	1390.839111328125	66.693603515625	759.5874633789062	1441.478637695312	-36.82568359375	1670.084838867188	1103.571411132812	121.5803527832031	1698.396850585938	1247.184936523438	137.3761444091797	1703.684692382812	1122.045043945312	-45.17954635620117	1657.31689453125	1240.5712890625	-13.16552734375	966.2880249023438	1005.870422363281	-35.01682662963867	968.9951171875	1347.375	91.03181457519531	980.755126953125	1325.712890625	103.4109802246094	972.6570434570312	1055.961791992188	21.18156433105469	499.0022583007812	1048.084716796875	2.524991989135742	641.8440551757812	1012.401672363281	-78.85367584228516	52.11724853515625	1028.065185546875	-39.92580032348633	268.4077453613281	1022.977478027344	127.3670654296875	44.17546844482422	1024.826904296875	80.67107391357422	43.41047286987305	1080.942260742188	22.26437759399414	41.87619018554688	985.4077758789062	-128.5560913085938	49.10106658935547	1105.295776367188	18.99408531188965	519.1519775390625	1329.022827148438	42.21142578125	789.8403930664062	1356.674926757812	-58.5628547668457	45.70561599731445	1327.885986328125	-4.918910503387451	400.9478759765625	1336.762329101562	157.71875	41.34799575805664	1294.297119140625	96.87906646728516	47.74793243408203	1253.185302734375	65.92170715332031	47.59941864013672	1345.349487304688	-105.5713729858398	46.61996841430664	1270.79248046875	
104	1.03	-99.33169555664062	1042.61279296875	1270.716186523438	-111.6431350708008	1036.490600585938	1095.372436523438	-100.3255844116211	1085.217407226562	1174.760375976562	138.34814453125	1288.184448242188	1180.66748046875	-126.4740371704102	1218.148681640625	1166.718994140625	-75.01800537109375	1486.591430664062	1164.466186523438	-137.7687530517578	1346.677612304688	1237.805053710938	106.0548629760742	1401.729614257812	1176.853149414062	-89.98289489746094	1448.309936523438	1062.1357421875	18.0892162322998	1453.42529296875	995.7296142578125	11.28023433685303	1324.53955078125	919.3634033203125	41.36337280273438	1108.6865234375	909.67236328125	-30.15273475646973	1094.076049804688	988.176513671875	132.7422027587891	874.2088012695312	991.9318237304688	82.35603332519531	859.0777587890625	926.249267578125	66.491455078125	999.8641967773438	908.89794921875	153.8786010742188	689.1956176757812	1015.704650878906	116.6363067626953	779.376708984375	937.9049072265625	157.2294769287109	792.0797729492188	994.7077026367188	-18.49152183532715	1451.267578125	1344.06591796875	-30.74625968933105	1381.285034179688	1407.570068359375	-50.14179611206055	1113.125244140625	1430.064575195312	-32.07640075683594	1094.982055664062	1334.327392578125	97.77425384521484	864.811279296875	1390.83447265625	27.17121696472168	847.0310668945312	1439.149169921875	-34.41553115844727	1034.039306640625	1434.825317382812	109.9973602294922	675.3463134765625	1376.006958007812	123.3683624267578	762.7916259765625	1391.0380859375	66.32411956787109	759.5517578125	1441.67578125	-36.83686828613281	1670.099487304688	1103.545654296875	121.5688095092773	1698.361938476562	1247.171020507812	137.3715972900391	1703.651489257812	1122.025634765625	-45.18997573852539	1657.328979492188	1240.5458984375	-13.16748905181885	966.2858276367188	1005.859497070312	-34.99055862426758	968.9849243164062	1347.375	91.04822540283203	980.7484741210938	1325.706420898438	103.4500579833984	972.666259765625	1055.947387695312	21.19721794128418	499.0038757324219	1048.080444335938	2.54363226890564	641.8386840820312	1012.40869140625	-78.84812927246094	52.10892105102539	1028.070068359375	-39.91817092895508	268.4027099609375	1022.976135253906	127.3669128417969	44.1756706237793	1024.825073242188	80.67193603515625	43.40910339355469	1080.939208984375	22.26388740539551	41.87852478027344	985.407958984375	-128.5589294433594	49.10161209106445	1105.296997070312	18.9535961151123	519.148193359375	1329.02880859375	42.17876052856445	789.8631591796875	1356.698608398438	-58.56654739379883	45.69427490234375	1327.880981445312	-4.946256637573242	400.9391784667969	1336.76220703125	157.7189025878906	41.35413360595703	1294.298828125	96.86534118652344	47.74568557739258	1253.191528320312	65.91965484619141	47.59801864624023	1345.347534179688	-105.5693283081055	46.61104583740234	1270.793823242188	
105	1.04	-99.31074523925781	1042.577514648438	1270.720703125	-111.6741943359375	1036.486450195312	1095.353637695312	-100.3259201049805	1085.192626953125	1174.767333984375	138.2962493896484	1288.180908203125	1180.64599609375	-126.5042266845703	1218.096069335938	1166.711791992188	-75.08300018310547	1486.564453125	1164.440185546875	-137.8379516601562	1346.636596679688	1237.7734375	106.0023651123047	1401.729736328125	1176.822875976562	-90.04721069335938	1448.285888671875	1062.13720703125	17.95853424072266	1453.391479492188	995.701416015625	11.18313312530518	1324.52587890625	919.3268432617188	41.22515106201172	1108.707885742188	909.5014038085938	-30.22290992736816	1094.039672851562	988.05859375	132.6364440917969	874.138916015625	991.5250854492188	82.10985565185547	859.0703125	925.8589477539062	66.30239105224609	999.8906860351562	908.621337890625	153.787109375	689.1268920898438	1015.11474609375	116.4247360229492	779.3689575195312	937.433837890625	156.9570465087891	792.0165405273438	994.2789306640625	-18.56630325317383	1451.268188476562	1344.05322265625	-30.82523918151855	1381.283203125	1407.538940429688	-50.30648422241211	1113.146850585938	1430.123291015625	-32.33300018310547	1095.027465820312	1334.456420898438	97.58559417724609	864.7998046875	1390.955810546875	26.90786361694336	847.0543212890625	1439.312622070312	-34.53611755371094	1034.07958984375	1434.908081054688	109.8299026489258	675.305908203125	1376.398803710938	123.1049041748047	762.7264404296875	1391.201293945312	66.00790405273438	759.5390014648438	1441.889770507812	-36.84389114379883	1670.1181640625	1103.519409179688	121.5580673217773	1698.320190429688	1247.158325195312	137.3737640380859	1703.614868164062	1122.011474609375	-45.19832992553711	1657.3427734375	1240.521606445312	-13.16906070709229	966.28125	1005.849731445312	-34.96908569335938	968.972900390625	1347.37353515625	91.06367492675781	980.7425537109375	1325.7001953125	103.4830017089844	972.6704711914062	1055.934204101562	21.20331573486328	499.0057067871094	1048.073974609375	2.554457664489746	641.8311157226562	1012.4150390625	-78.84499359130859	52.10066223144531	1028.071655273438	-39.91663360595703	268.4000244140625	1022.975036621094	127.3661880493164	44.1751708984375	1024.823120117188	80.67361450195312	43.40880584716797	1080.9365234375	22.26125526428223	41.87907409667969	985.406494140625	-128.5623474121094	49.10268402099609	1105.297729492188	18.908203125	519.1434326171875	1329.03515625	42.14471435546875	789.881103515625	1356.721923828125	-58.57070541381836	45.68302154541016	1327.87548828125	-4.968714714050293	400.9308776855469	1336.760986328125	157.7172088623047	41.35912322998047	1294.299438476562	96.85041809082031	47.74362182617188	1253.197387695312	65.91615295410156	47.59606552124023	1345.345092773438	-105.5675048828125	46.6025505065918	1270.794799804688	
106	1.05	-99.29151153564453	1042.542236328125	1270.723876953125	-111.7036895751953	1036.483276367188	1095.335815429688	-100.3263931274414	1085.165771484375	1174.769409179688	138.2467498779297	1288.173828125	1180.619873046875	-126.5351028442383	1218.043090820312	1166.704467773438	-75.14672088623047	1486.537353515625	1164.413208007812	-137.9002685546875	1346.594116210938	1237.743041992188	105.9514541625977	1401.729248046875	1176.7890625	-90.11054229736328	1448.261352539062	1062.14013671875	17.8297290802002	1453.360229492188	995.6716918945312	11.09207153320312	1324.516845703125	919.2890014648438	41.09440994262695	1108.737915039062	909.318603515625	-30.28040313720703	1094.006591796875	987.9293212890625	132.5489044189453	874.0767822265625	991.103515625	81.90296173095703	859.0740966796875	925.4501342773438	66.13558197021484	999.9247436523438	908.3330078125	153.7227935791016	689.0543823242188	1014.50830078125	116.2462310791016	779.3734130859375	936.9332275390625	156.6964416503906	791.9686889648438	993.8170166015625	-18.63734245300293	1451.267944335938	1344.039184570312	-30.89215660095215	1381.284545898438	1407.508056640625	-50.45147705078125	1113.17333984375	1430.192993164062	-32.56363296508789	1095.030151367188	1334.58447265625	97.40182495117188	864.7947998046875	1391.095458984375	26.66960906982422	847.0810546875	1439.4794921875	-34.65792083740234	1034.120361328125	1435.00537109375	109.7043685913086	675.2975463867188	1376.769775390625	122.8783111572266	762.6813354492188	1391.339965820312	65.75093078613281	759.5476684570312	1442.113403320312	-36.84664154052734	1670.140869140625	1103.492065429688	121.5476455688477	1698.271850585938	1247.146484375	137.3819274902344	1703.5751953125	1122.00244140625	-45.20557022094727	1657.359375	1240.498413085938	-13.16866207122803	966.2747802734375	1005.841979980469	-34.95187377929688	968.9596557617188	1347.37060546875	91.07792663574219	980.7366943359375	1325.694946289062	103.5095748901367	972.6703491210938	1055.922119140625	21.19825553894043	499.0080871582031	1048.064575195312	2.55505633354187	641.8232421875	1012.419799804688	-78.84506988525391	52.09406661987305	1028.0712890625	-39.92264556884766	268.4002380371094	1022.973510742188	127.3649291992188	44.17437744140625	1024.821411132812	80.67572021484375	43.40953826904297	1080.9345703125	22.25642204284668	41.87771224975586	985.4032592773438	-128.5661163330078	49.10396575927734	1105.298095703125	18.85854530334473	519.1380004882812	1329.041870117188	42.11592102050781	789.8927001953125	1356.741088867188	-58.57505035400391	45.67319488525391	1327.87158203125	-4.985660552978516	400.9228515625	1336.7587890625	157.7131195068359	41.36316299438477	1294.2998046875	96.83416748046875	47.74203491210938	1253.204223632812	65.91094970703125	47.5936164855957	1345.342651367188	-105.5664443969727	46.59482192993164	1270.796752929688	
